<?xml version="1.0" standalone="no"?>
<!DOCTYPE svg PUBLIC "-//W3C//DTD SVG 20010904//EN"
 "http://www.w3.org/TR/2001/REC-SVG-20010904/DTD/svg10.dtd">
<svg version="1.0" xmlns="http://www.w3.org/2000/svg"
 width="391.000000pt" height="262.000000pt" viewBox="0 0 391.000000 262.000000"
 preserveAspectRatio="xMidYMid meet">

<g transform="translate(0.000000,262.000000) scale(0.100000,-0.100000)"
fill="#000000" stroke="none">
<path d="M1355 2294 c-421 -41 -680 -114 -801 -226 -97 -89 -56 -188 111 -267
74 -35 97 -36 41 -2 -60 37 -86 76 -86 129 0 42 4 50 48 91 102 98 302 164
657 218 98 15 184 18 475 18 372 0 453 -7 689 -56 52 -10 96 -17 98 -15 3 3
-146 46 -211 61 -15 3 -90 15 -165 27 -113 17 -193 21 -476 23 -187 1 -358 1
-380 -1z"/>
<path d="M2905 2070 c20 -38 19 -103 -2 -147 -62 -132 -388 -258 -823 -318
-160 -22 -578 -31 -765 -16 -265 21 -550 78 -713 142 -86 34 -96 35 -62 8 43
-34 191 -106 277 -133 301 -94 620 -132 1033 -123 309 8 492 31 751 97 42 11
83 20 90 20 31 0 -15 -365 -67 -540 -33 -107 -97 -270 -131 -329 -83 -147
-160 -255 -242 -343 -24 -27 -40 -48 -36 -48 4 0 50 24 104 54 109 62 218 151
311 255 55 60 75 75 139 102 157 65 257 123 363 211 370 309 520 819 284 972
-94 61 -186 57 -288 -13 l-58 -40 -11 42 c-14 53 -49 99 -107 142 -58 42 -67
43 -47 5z m355 -370 c31 -16 43 -82 30 -157 -39 -224 -203 -456 -423 -598 -33
-21 -35 -29 38 140 57 130 91 246 126 425 24 126 36 146 103 180 45 22 96 26
126 10z"/>
</g>
</svg>
